<svg xmlns="http://www.w3.org/2000/svg" viewBox="28 34 456 456" role="img" aria-labelledby="title desc" shape-rendering="geometricPrecision">
  <title id="title">RunnerQuan orbital monogram</title>
  <desc id="desc">A monochrome pixel-space planet with an RQ monogram and orbit ring.</desc>
  <defs>
    <linearGradient id="moon" x1="0" y1="0" x2="1" y2="1">
      <stop offset="0" stop-color="#ffffff"/>
      <stop offset="1" stop-color="#a8a8a8"/>
    </linearGradient>
    <filter id="softGlow" x="-30%" y="-30%" width="160%" height="160%">
      <feGaussianBlur stdDeviation="4" result="blur"/>
      <feMerge>
        <feMergeNode in="blur"/>
        <feMergeNode in="SourceGraphic"/>
      </feMerge>
    </filter>
    <clipPath id="planetClip">
      <circle cx="256" cy="256" r="176"/>
    </clipPath>
  </defs>

  <circle cx="256" cy="256" r="176" fill="#050505" stroke="#ffffff" stroke-width="16"/>

  <g clip-path="url(#planetClip)">
    <path d="M261 80A176 176 0 0 1 426 244C393 205 350 179 299 163C284 137 270 109 261 80Z" fill="url(#moon)"/>
    <circle cx="337" cy="126" r="22" fill="#747474" stroke="#ffffff" stroke-width="9"/>
    <circle cx="392" cy="187" r="29" fill="#6e6e6e" stroke="#ffffff" stroke-width="10"/>
    <circle cx="405" cy="117" r="8" fill="#787878" stroke="#f5f5f5" stroke-width="5"/>
    <rect x="366" y="92" width="9" height="9" fill="#8d8d8d"/>
    <rect x="377" y="103" width="9" height="9" fill="#8d8d8d"/>
    <path d="M418 157h24M430 145v24" stroke="#8d8d8d" stroke-width="7"/>
  </g>

  <g fill="#ffffff">
    <path d="M128 171h11v-11h9v11h11v9h-11v11h-9v-11h-11z"/>
    <rect x="119" y="246" width="10" height="10"/>
    <rect x="153" y="335" width="8" height="8"/>
    <rect x="315" y="327" width="9" height="9"/>
    <rect x="353" y="274" width="8" height="8"/>
    <path d="M177 359h8v-9h7v9h9v7h-9v9h-7v-9h-8z"/>
  </g>

  <path d="M151 179H302L337 214V263L303 296H245L345 396H278L207 325V396H151V256H267L282 241V225L267 211H151Z" fill="#ffffff"/>
  <path d="M305 316H358V365H391V409H347L347 391H305Z" fill="#ffffff"/>
  <rect x="347" y="360" width="27" height="27" fill="#050505"/>

  <path d="M62 334C147 400 348 405 454 308" fill="none" stroke="#ffffff" stroke-width="13" stroke-linecap="round"/>
  <path d="M53 340C17 368 21 396 76 407C167 426 367 386 475 290" fill="none" stroke="#ffffff" stroke-width="13" stroke-linecap="round"/>
  <path d="M333 355C379 341 425 321 475 290" fill="none" stroke="#ffffff" stroke-width="15" stroke-linecap="round" filter="url(#softGlow)"/>
</svg>
