<svg xmlns="http://www.w3.org/2000/svg" viewBox="0 0 1600 728" role="img" aria-label="Pixel art spacecraft cockpit">
<defs>
  <linearGradient id="frame" x1="0" y1="0" x2="1" y2="1">
    <stop offset="0" stop-color="#050505"/><stop offset=".38" stop-color="#333"/><stop offset=".55" stop-color="#111"/><stop offset="1" stop-color="#020202"/>
  </linearGradient>
  <linearGradient id="metal" x1="0" y1="0" x2="1" y2="0">
    <stop offset="0" stop-color="#080808"/><stop offset=".25" stop-color="#3c3c3c"/><stop offset=".45" stop-color="#111"/><stop offset=".7" stop-color="#454545"/><stop offset="1" stop-color="#050505"/>
  </linearGradient>
  <linearGradient id="glass" x1="0" y1="0" x2="1" y2="1">
    <stop offset="0" stop-color="#1b1b1b" stop-opacity=".45"/><stop offset=".45" stop-color="#000" stop-opacity=".08"/><stop offset="1" stop-color="#777" stop-opacity=".12"/>
  </linearGradient>
  <pattern id="dots" width="12" height="12" patternUnits="userSpaceOnUse">
    <circle cx="2" cy="2" r="1.2" fill="#777" opacity=".36"/>
    <circle cx="8" cy="7" r=".8" fill="#aaa" opacity=".18"/>
  </pattern>
  <pattern id="keys" width="44" height="28" patternUnits="userSpaceOnUse">
    <rect x="2" y="3" width="34" height="18" rx="2" fill="#444"/>
    <rect x="4" y="5" width="30" height="14" rx="1" fill="#181818"/>
    <path d="M5 6h28" stroke="#888" stroke-width="1" opacity=".45"/>
  </pattern>
  <filter id="noise">
    <feTurbulence type="fractalNoise" baseFrequency=".55" numOctaves="3" seed="9"/>
    <feColorMatrix values=".22 0 0 0 0 0 .22 0 0 0 0 0 .22 0 0 0 0 0 .3 0"/>
  </filter>
  <filter id="glow"><feGaussianBlur stdDeviation="5"/></filter>
  <clipPath id="windowClip"><path d="M368 505V244C368 102 487 30 790 30s422 72 422 214v261z"/></clipPath>
</defs>

<rect width="1600" height="728" fill="#000"/>
<rect width="1600" height="728" fill="url(#dots)" opacity=".38"/>

<path d="M0 65h355l115 85-70 530H0z" fill="#070707"/>
<path d="M1600 55h-340l-100 95 74 530h366z" fill="#070707"/>
<path d="M0 155h330l45 28-35 15H0zm0 100h305l42 25-45 19H0zm1600-88h-316l-42 25 38 17h320zm0 98h-295l-38 24 42 18h291z" fill="#3a3a3a" opacity=".35"/>

<path d="M315 545V230C315 70 453 0 790 0s475 70 475 230v315h-62V244C1203 108 1084 55 790 55S377 108 377 244v301z" fill="url(#frame)"/>
<path d="M337 527V236C337 89 470 25 790 25s453 64 453 211v291" fill="none" stroke="#777" stroke-width="4" opacity=".75"/>
<path d="M355 515V241C355 105 484 45 790 45s435 60 435 196v274" fill="none" stroke="#111" stroke-width="24"/>
<path d="M370 505V244C370 112 493 59 790 59s420 53 420 185v261" fill="#010101"/>

<g clip-path="url(#windowClip)">
  <rect x="360" y="45" width="860" height="485" fill="#000"/>
  <g fill="#ddd">
    <circle cx="427" cy="141" r="2"/><circle cx="468" cy="202" r="1.5"/><circle cx="506" cy="112" r="2.3"/>
    <circle cx="553" cy="260" r="1.3"/><circle cx="604" cy="172" r="1.8"/><circle cx="648" cy="96" r="1.2"/>
    <circle cx="697" cy="229" r="2"/><circle cx="745" cy="151" r="1.4"/><circle cx="809" cy="110" r="2.1"/>
    <circle cx="865" cy="255" r="1.6"/><circle cx="921" cy="177" r="2.2"/><circle cx="984" cy="118" r="1.2"/>
    <circle cx="1040" cy="238" r="2"/><circle cx="1097" cy="165" r="1.3"/><circle cx="1158" cy="284" r="1.8"/>
    <circle cx="452" cy="348" r="1.4"/><circle cx="512" cy="409" r="2"/><circle cx="571" cy="330" r="1.2"/>
    <circle cx="626" cy="448" r="1.7"/><circle cx="683" cy="371" r="2.2"/><circle cx="744" cy="424" r="1.4"/>
    <circle cx="814" cy="347" r="1.8"/><circle cx="872" cy="418" r="1.2"/><circle cx="936" cy="352" r="2"/>
    <circle cx="1007" cy="430" r="1.5"/><circle cx="1068" cy="361" r="1.9"/><circle cx="1134" cy="419" r="1.3"/>
  </g>
  <g stroke="#eee" stroke-width="2" opacity=".65">
    <path d="M1015 142l86-50"/><path d="M964 392l64-38"/><path d="M532 313l52-29"/>
  </g>
  <rect x="360" y="45" width="860" height="485" fill="url(#glass)"/>
  <path d="M455 70l280 430" stroke="#fff" stroke-width="12" opacity=".018"/>
</g>

<path d="M298 505h976l58 68H250z" fill="url(#metal)"/>
<path d="M355 505h858v36H355z" fill="#242424"/>
<path d="M370 514h828" stroke="#888" stroke-width="3" opacity=".46"/>
<path d="M402 526h300m56 0h228m42 0h136" stroke="#050505" stroke-width="8"/>

<path d="M128 728l48-244 105-34 93 38 70 240z" fill="#0b0b0b"/>
<path d="M190 484l83-22 70 29 42 201H149z" fill="url(#metal)"/>
<path d="M218 496l55-18 45 19 25 150H185z" fill="#090909"/>
<path d="M202 510h130l-10 24H194z" fill="#565656" opacity=".5"/>
<path d="M150 602L0 660v68h176zm209 6l147 45v75H395z" fill="#101010"/>

<path d="M395 572h716l134 156H278z" fill="#090909"/>
<path d="M485 587h420l78 121H420z" fill="#222"/>
<path d="M507 595h375l60 95H450z" fill="url(#keys)"/>
<path d="M500 590h390" stroke="#8d8d8d" opacity=".3"/>
<rect x="915" y="592" width="34" height="18" fill="#999" opacity=".34"/>
<circle cx="972" cy="603" r="8" fill="#5e5e5e"/><circle cx="1002" cy="603" r="8" fill="#333"/>

<path d="M1025 445h242l26 151h-292z" fill="#171717" stroke="#777" stroke-width="3"/>
<rect x="1047" y="466" width="194" height="101" fill="#020202"/>
<g stroke="#bcbcbc" stroke-width="3" opacity=".45">
  <path d="M1062 482h88m13 0h48M1062 496h42m16 0h76M1062 513h112m15 0h27M1062 531h54m13 0h89M1062 548h92"/>
</g>
<rect x="1055" y="573" width="82" height="9" fill="#555"/>
<circle cx="1219" cy="579" r="6" fill="#888"/>

<path d="M1260 536h340v192h-380z" fill="#0b0b0b"/>
<rect x="1357" y="553" width="243" height="133" fill="#111" stroke="#5b5b5b" stroke-width="2"/>
<g stroke="#777" stroke-width="2" opacity=".55">
  <path d="M1375 572h196M1375 593h196M1375 614h196M1375 635h196M1375 656h196"/>
</g>

<path d="M305 97l74 82m-98-48l71 76m970-114l-73 82m96-49l-72 77" stroke="#545454" stroke-width="9" opacity=".28"/>
<g fill="#777" opacity=".24">
  <rect x="72" y="366" width="173" height="17"/><rect x="91" y="399" width="134" height="12"/>
  <rect x="1371" y="352" width="161" height="17"/><rect x="1395" y="386" width="117" height="12"/>
</g>

<rect width="1600" height="728" filter="url(#noise)" opacity=".16"/>
<rect x="0" y="0" width="300" height="728" fill="url(#glass)" opacity=".35"/>
</svg>